<?xml version="1.0" encoding="utf-8"?>
<!-- Generator: Adobe Illustrator 20.0.0, SVG Export Plug-In . SVG Version: 6.00 Build 0)  -->
<svg version="1.1" id="Layer_1" xmlns="http://www.w3.org/2000/svg" xmlns:xlink="http://www.w3.org/1999/xlink" x="0px" y="0px"
	 viewBox="0 0 728.5 515.9" style="enable-background:new 0 0 728.5 515.9;" xml:space="preserve">
<style type="text/css">
	.st0{fill-rule:evenodd;clip-rule:evenodd;fill:#87D0CC;}
	.st1{fill-rule:evenodd;clip-rule:evenodd;fill:#58595B;}
	.st2{fill:#58595B;}
</style>
<g>
	<g>
		<path class="st0" d="M247.2,172c-44.9,25.4-54,73.1-17.3,113.8c-7.3-2.3-14.4-4.8-21.7-7.3C183.2,240.9,196.2,193.8,247.2,172z"/>
		<path class="st0" d="M208.6,191.7c-22.2,18.5-28.9,56.6-12.6,82.7c-5.4-1.7-10.2-3.4-15.5-5.2C171.7,242.3,183.3,208,208.6,191.7z
			"/>
		<path class="st0" d="M186.3,202.4c-14.2,15.6-24,40.8-15.8,63.4c-4-1.3-6.5-2.1-10.4-3.4C155.7,239.4,171.2,213.9,186.3,202.4z"/>
		<path class="st1" d="M123.2,281.1c5.4,5.4,10.8,10.8,16.2,16.2c45.1-7.2,90.6-6.4,136.6,6.2C229.7,282.2,177.5,278.4,123.2,281.1z
			"/>
	</g>
	<g>
		<path class="st2" d="M240.8,251.9v-35.6h29c2,0,3.6,0.2,5,0.5c1.4,0.4,2.5,0.9,3.4,1.5s1.5,1.5,1.9,2.4s0.6,2,0.6,3.2v3.3
			c0,1.6-0.4,2.9-1.1,3.9c-0.8,1.1-1.8,1.7-3.1,2c1.3,0.4,2.5,1,3.3,1.9c0.9,0.9,1.3,2.2,1.3,3.9v5.2c0,1-0.2,2-0.5,2.9
			c-0.4,0.9-1,1.7-1.8,2.5c-0.9,0.7-2,1.3-3.5,1.7c-1.5,0.4-3.3,0.6-5.5,0.6H240.8z M273.9,224.3c0-1-0.3-1.7-0.9-2.1
			c-0.6-0.4-1.7-0.7-3.3-0.7h-22.3v9.3h22.3c1.6,0,2.7-0.2,3.3-0.7c0.6-0.4,0.9-1.1,0.9-2.1V224.3z M274.4,239.1
			c0-1.1-0.4-1.9-1.3-2.4c-0.8-0.5-1.9-0.7-3.3-0.7h-22.4v10.6h22.4c1.3,0,2.4-0.3,3.3-0.8c0.8-0.5,1.3-1.5,1.3-2.9V239.1z"/>
		<path class="st2" d="M302.9,251.9v-35.6h6.7v35.6H302.9z"/>
		<path class="st2" d="M365.5,251.9l-8.3-15.9h-18.8v15.9h-6.7v-35.6h30.3c2,0,3.7,0.2,5.2,0.6c1.4,0.4,2.6,1,3.5,1.8
			c0.9,0.8,1.5,1.7,1.9,2.7c0.4,1,0.6,2.2,0.6,3.5v2.5c0,2.3-0.7,4.2-2,5.7c-1.3,1.5-3.6,2.5-6.8,2.8l8.4,16H365.5z M366.3,224.8
			c0-2.2-1.5-3.3-4.5-3.3h-23.5v9.2h23.5c3,0,4.5-1.1,4.5-3.3V224.8z"/>
		<path class="st2" d="M393.7,251.9v-35.6h36.6v5.3h-29.9v8.9h28.4v5.3h-28.4v10.9h29.9v5.3H393.7z"/>
		<path class="st2" d="M499.2,251.9v-24.9l-18.1,24.9h-5.5L457.4,227v24.9h-6.2v-35.6h6.3l21.2,29.1l21-29.1h5.8v35.6H499.2z"/>
		<path class="st2" d="M527.2,251.9v-35.6h36.6v5.3h-29.9v8.9h28.4v5.3h-28.4v10.9h29.9v5.3H527.2z"/>
	</g>
</g>
</svg>
